<svg width="30" height="30" viewBox="0 0 30 30" fill="none" xmlns="http://www.w3.org/2000/svg">
<path d="M18.7077 6.43093C32.3388 1.87204 27.6749 12.5914 15.4786 24.6848C3.28318 14.057 27.3161 15.3097 11.2268 20.6101C5.07523 14.3587 -0.305958 2.48509 11.2275 5.57406C29.1097 25.9348 0.41344 20.1795 18.7077 6.43093Z" fill="#ED4956"/>
<path d="M15.4618 24.9995C7.92296 17.0819 -0.0233679 9.41409 6.29295 5.83034C11.346 2.96335 14.5109 8.46953 15.4618 11.581C16.4083 8.46466 19.661 2.92963 24.6913 5.80111C30.9791 9.39046 22.9667 17.0703 15.4619 25.0002" stroke="#ED4956" stroke-width="2" stroke-linecap="round"/>
<path d="M14.9843 8.41339C14.3574 7.19994 13.4983 6.04665 12.3951 5.22519C11.4476 4.5197 10.3082 4.05251 8.99833 4.03312C7.69236 4.01379 6.30442 4.44069 4.85572 5.37345C3.05306 6.53409 2.03761 7.91431 2.00101 9.60054C1.96667 11.1825 2.81511 12.7507 3.9572 14.278C5.11879 15.8314 6.73587 17.5338 8.50771 19.3904C8.56444 19.4499 8.62136 19.5095 8.67846 19.5693C10.4207 21.3946 12.3317 23.3968 14.2162 25.6428L14.9846 26.5585L15.7502 25.6405C17.6548 23.3568 19.5933 21.3241 21.3584 19.4732L21.4478 19.3795C23.221 17.52 24.8438 15.8148 26.013 14.2597C27.1624 12.7308 28.0209 11.1623 27.9996 9.58029C27.9769 7.89054 26.9724 6.50489 25.1745 5.34027C23.7293 4.40406 22.3385 3.9784 21.0268 4.00084C19.7125 4.02332 18.5657 4.49433 17.6103 5.20231C16.4937 6.0297 15.6201 7.19128 14.9843 8.41339Z" stroke="#ED4956" stroke-width="2" stroke-linecap="round"/>
</svg>
