<svg width="14" height="15" viewBox="0 0 14 15" fill="none" xmlns="http://www.w3.org/2000/svg">
<path d="M10.357 4.07376C10.357 5.93099 8.85138 7.43657 6.99416 7.43657C5.13693 7.43657 3.63135 5.93099 3.63135 4.07376C3.63135 2.21652 5.13693 0.710938 6.99416 0.710938C8.85138 0.710938 10.357 2.21652 10.357 4.07376Z" stroke="white"/>
<path d="M5.58416 10.1671C4.60469 9.96543 3.47379 10.1518 2.58006 10.6293C1.68761 11.1061 0.933594 11.935 0.933594 13.0611C0.933594 14.4221 2.03694 15.5255 3.39799 15.5255H10.614C11.9778 15.5255 13.0834 14.4199 13.0834 13.0561C13.0834 11.93 12.3134 11.0691 11.4114 10.5683C10.5056 10.0655 9.35066 9.85299 8.35868 10.0962C7.50943 10.3043 6.57119 10.3703 5.58416 10.1671Z" stroke="white"/>
</svg>
